# Blender 4.4.0
# www.blender.org
mtllib pointy.mtl
o Plane
v 1.000000 0.000000 0.500000
v 0.000000 0.000000 1.000000
v -1.000000 0.000000 0.000000
v 1.219977 0.243580 -0.036985
v 0.992084 0.003922 -0.997699
v -1.000000 0.000000 -1.000000
v 1.000000 0.000000 1.000000
v -1.000000 0.000000 1.000000
v -1.000000 0.000000 -0.500000
vn -0.1091 0.9940 -0.0000
vn -0.0000 1.0000 -0.0000
vn 0.2405 0.8431 0.4810
vn -0.0590 0.9718 -0.2284
vn -0.1067 0.9886 0.1067
vn -0.0020 1.0000 -0.0000
vt 0.000000 0.750000
vt 0.000000 0.500000
vt 1.000000 0.500000
vt 0.000000 0.000000
vt 0.500000 0.000000
vt 1.000000 0.000000
vt 1.000000 0.250000
vt 1.000000 1.000000
vt 0.000000 1.000000
s 0
f 9/1/1 3/2/1 4/3/1
f 3/2/2 8/4/2 2/5/2
f 2/5/2 7/6/2 1/7/2
f 1/7/3 4/3/3 2/5/3
f 4/3/4 5/8/4 9/1/4
f 2/5/5 4/3/5 3/2/5
f 5/8/6 6/9/6 9/1/6
